<svg width="48" height="48" viewBox="0 0 48 48" fill="none" xmlns="http://www.w3.org/2000/svg">
<path d="M24 47C11.2975 47 1 36.7025 1 24C1 11.2975 11.2975 1 24 1C36.7025 1 47 11.2975 47 24C47 36.7025 36.7025 47 24 47Z" fill="#E8F8F8"/>
<path d="M24 47C11.2975 47 1 36.7025 1 24C1 11.2975 11.2975 1 24 1C36.7025 1 47 11.2975 47 24C47 36.7025 36.7025 47 24 47Z" stroke="white" stroke-width="2"/>
<path d="M19.838 14.5C19.838 14.7626 19.8897 15.0227 19.9902 15.2654C20.0907 15.508 20.2381 15.7285 20.4238 15.9142C20.6095 16.0999 20.83 16.2472 21.0726 16.3478C21.3153 16.4483 21.5754 16.5 21.838 16.5C22.1006 16.5 22.3607 16.4483 22.6034 16.3478C22.846 16.2472 23.0665 16.0999 23.2522 15.9142C23.4379 15.7285 23.5852 15.508 23.6858 15.2654C23.7863 15.0227 23.838 14.7626 23.838 14.5C23.838 14.2374 23.7863 13.9773 23.6858 13.7346C23.5852 13.492 23.4379 13.2715 23.2522 13.0858C23.0665 12.9001 22.846 12.7528 22.6034 12.6522C22.3607 12.5517 22.1006 12.5 21.838 12.5C21.5754 12.5 21.3153 12.5517 21.0726 12.6522C20.83 12.7528 20.6095 12.9001 20.4238 13.0858C20.2381 13.2715 20.0907 13.492 19.9902 13.7346C19.8897 13.9773 19.838 14.2374 19.838 14.5Z" fill="#F0FBFB" stroke="#2C6C78" stroke-linecap="round" stroke-linejoin="round"/>
<path d="M25.927 22.315C26.3978 22.9895 27.0023 23.5599 27.703 23.9907C28.4037 24.4215 29.1856 24.7034 30 24.819L31.2 24.99C31.462 25.0261 31.7276 24.957 31.9388 24.7978C32.1499 24.6386 32.2894 24.4022 32.3267 24.1404C32.364 23.8786 32.296 23.6126 32.1377 23.4008C31.9794 23.1889 31.7437 23.0484 31.482 23.01L30.282 22.839C29.7051 22.7569 29.1531 22.5499 28.6647 22.2322C28.1762 21.9145 27.763 21.494 27.454 21L27.067 20.38C26.7091 19.8034 26.2096 19.328 25.6161 18.9989C25.0225 18.6698 24.3547 18.4981 23.676 18.5H20.076C19.5512 18.4994 19.0315 18.6026 18.5469 18.8038C18.0622 19.0049 17.6221 19.3 17.252 19.672L16.432 20.491C15.7568 21.1678 15.2604 22.0018 14.9874 22.9181C14.7144 23.8343 14.6734 24.804 14.868 25.74C14.9221 25.9561 15.0469 26.1479 15.2224 26.285C15.3979 26.4222 15.6142 26.4968 15.837 26.497C15.911 26.4969 15.9847 26.4888 16.057 26.473C16.312 26.4157 16.5344 26.2608 16.6766 26.0416C16.8188 25.8224 16.8696 25.5562 16.818 25.3C16.7055 24.7394 16.7225 24.1605 16.8678 23.6075C17.013 23.0545 17.2826 22.542 17.656 22.109" fill="#F0FBFB"/>
<path d="M25.927 22.315C26.3978 22.9895 27.0023 23.5599 27.703 23.9907C28.4037 24.4215 29.1856 24.7034 30 24.819L31.2 24.99C31.462 25.0261 31.7276 24.957 31.9388 24.7978C32.1499 24.6386 32.2894 24.4022 32.3267 24.1404C32.364 23.8786 32.296 23.6126 32.1377 23.4008C31.9794 23.1889 31.7437 23.0484 31.482 23.01L30.282 22.839C29.7051 22.7569 29.1531 22.5499 28.6647 22.2322C28.1762 21.9145 27.763 21.494 27.454 21L27.067 20.38C26.7091 19.8034 26.2096 19.328 25.6161 18.9989C25.0225 18.6698 24.3547 18.4981 23.676 18.5H20.076C19.5512 18.4994 19.0315 18.6026 18.5469 18.8038C18.0622 19.0049 17.6221 19.3 17.252 19.672L16.432 20.491C15.7568 21.1678 15.2604 22.0018 14.9874 22.9181C14.7144 23.8343 14.6734 24.804 14.868 25.74C14.9221 25.9561 15.0469 26.1479 15.2224 26.285C15.3979 26.4222 15.6142 26.4968 15.837 26.497C15.911 26.4969 15.9847 26.4888 16.057 26.473C16.312 26.4157 16.5344 26.2608 16.6766 26.0416C16.8188 25.8224 16.8696 25.5562 16.818 25.3C16.7055 24.7394 16.7225 24.1605 16.8678 23.6075C17.013 23.0545 17.2826 22.542 17.656 22.109" stroke="#2C6C78" stroke-linecap="round" stroke-linejoin="round"/>
<path d="M19.123 21.853L18.009 29.353C17.9878 29.4953 17.9977 29.6406 18.0378 29.7788C18.0779 29.917 18.1474 30.0449 18.2414 30.1538C18.3355 30.2627 18.452 30.35 18.5829 30.4097C18.7138 30.4695 18.8561 30.5003 19 30.5H24.659C24.8043 30.5 24.9478 30.4683 25.0795 30.4071C25.2113 30.346 25.3282 30.2569 25.422 30.146C25.5159 30.0352 25.5844 29.9052 25.6229 29.7651C25.6614 29.625 25.669 29.4783 25.645 29.335L24.392 21.835C24.3528 21.6007 24.2314 21.3879 24.0497 21.2349C23.8679 21.0819 23.6376 20.9986 23.4 21H20.112C19.8723 21 19.6405 21.0862 19.459 21.2427C19.2775 21.3993 19.1582 21.6159 19.123 21.853Z" fill="#A5E5E5" stroke="#2C6C78" stroke-linecap="round" stroke-linejoin="round"/>
<path d="M23.75 32.5V34.5C23.75 34.7652 23.6446 35.0196 23.4571 35.2071C23.2696 35.3946 23.0152 35.5 22.75 35.5H20.75C20.4848 35.5 20.2304 35.3946 20.0429 35.2071C19.8554 35.0196 19.75 34.7652 19.75 34.5V32.5" fill="#F0FBFB"/>
<path d="M23.75 32.5V34.5C23.75 34.7652 23.6446 35.0196 23.4571 35.2071C23.2696 35.3946 23.0152 35.5 22.75 35.5H20.75C20.4848 35.5 20.2304 35.3946 20.0429 35.2071C19.8554 35.0196 19.75 34.7652 19.75 34.5V32.5" stroke="#2C6C78" stroke-linecap="round" stroke-linejoin="round"/>
<path d="M31.4 29.76C31.0409 29.5884 30.648 29.4993 30.25 29.4993C29.852 29.4993 29.4591 29.5884 29.1 29.76C28.7726 29.9141 28.4828 30.1377 28.2507 30.4152C28.0186 30.6928 27.8498 31.0176 27.756 31.367L27.282 34.185C27.2444 34.3446 27.244 34.5107 27.2807 34.6705C27.3175 34.8303 27.3905 34.9794 27.4941 35.1065C27.5977 35.2336 27.7291 35.3352 27.8782 35.4034C28.0273 35.4716 28.1901 35.5047 28.354 35.5H32.146C32.3098 35.5045 32.4725 35.4714 32.6214 35.4031C32.7704 35.3348 32.9017 35.2332 33.0052 35.1061C33.1087 34.9791 33.1816 34.8299 33.2183 34.6702C33.255 34.5105 33.2546 34.3445 33.217 34.185L32.743 31.367C32.6493 31.0177 32.4807 30.6929 32.2487 30.4154C32.0168 30.1378 31.7272 29.9142 31.4 29.76Z" fill="#A5E5E5" stroke="#2C6C78" stroke-linecap="round" stroke-linejoin="round"/>
<path d="M30.25 29.5V16" stroke="#2C6C78" stroke-linecap="round" stroke-linejoin="round"/>
<path d="M19.75 18.5L20.375 21" stroke="#2C6C78" stroke-linecap="round" stroke-linejoin="round"/>
<path d="M23.676 18.5L23.144 21" stroke="#2C6C78" stroke-linecap="round" stroke-linejoin="round"/>
<path d="M29.25 35.5V33.5" stroke="#2C6C78" stroke-linecap="round" stroke-linejoin="round"/>
<path d="M31.25 35.5V33.5" stroke="#2C6C78" stroke-linecap="round" stroke-linejoin="round"/>
</svg>
